<svg width="185" height="36" viewBox="0 0 185 36" fill="none" xmlns="http://www.w3.org/2000/svg">
<path d="M0.585 2.96C0.585 1.565 1.305 0.889999 2.745 0.889999H17.145C17.73 0.889999 18.225 1.07 18.585 1.475L21.42 4.265C21.6 4.445 21.78 4.805 21.96 5.3L25.02 13.04L25.245 13.49C25.29 13.445 25.38 13.31 25.47 13.175L29.61 3.05C30.195 1.61 31.095 0.889999 32.31 0.889999H45.72C46.395 0.889999 47.7 1.925 49.635 3.95C49.95 4.265 50.085 4.715 50.085 5.21C50.085 5.93 49.77 6.47 49.095 6.875C47.295 7.82 46.395 8.45 46.395 8.765V28.565C46.395 28.61 46.44 28.655 46.485 28.7C47.295 29.285 48.375 30.32 49.77 31.715C49.995 32.075 50.085 32.435 50.085 32.795C50.085 34.19 49.41 34.865 48.06 34.865H30.285C29.79 34.865 29.385 34.775 29.16 34.55L26.685 32.165H26.64C26.55 32.165 26.505 32.21 26.46 32.3C25.335 34.415 24.075 35.45 22.68 35.45C21.645 35.45 20.88 35.18 20.385 34.64L17.01 31.13L12.06 19.79V28.565C12.06 28.655 12.24 28.79 12.645 29.015L15.435 31.85C15.57 31.985 15.66 32.345 15.66 32.84C15.66 34.19 14.985 34.865 13.635 34.865H4.86C4.365 34.865 3.96 34.73 3.645 34.415L0.945 31.715C0.72 31.49 0.585 31.085 0.585 30.545C0.585 29.87 0.99 29.285 1.845 28.79C3.51 27.845 4.32 27.35 4.32 27.215V7.19L3.42 6.65L0.81 3.95C0.675 3.77 0.585 3.455 0.585 2.96ZM1.575 3.005C1.575 3.23 2.025 3.68 2.97 4.265C3.015 4.31 3.06 4.4 3.06 4.49C3.105 4.4 3.15 4.355 3.24 4.355C3.285 4.355 3.375 4.4 3.51 4.49C3.915 4.715 4.14 4.85 4.185 4.85C4.68 5.435 4.995 6.29 5.22 7.415V27.575C5.22 27.935 4.86 28.385 4.185 28.925L2.61 29.6C1.935 29.87 1.575 30.23 1.575 30.635C1.575 31.31 2.34 31.67 3.87 31.715H7.11H10.395C11.745 31.67 12.42 31.31 12.42 30.635C12.42 30.275 11.7 29.78 10.26 29.15C9.585 28.835 9.135 28.34 8.91 27.665C8.82 25.28 8.775 23.66 8.775 22.805C8.775 22.715 8.82 19.745 8.91 13.85C8.91 12.68 9 11.825 9.135 11.24L16.785 28.79C16.83 28.835 17.01 29.105 17.235 29.69C17.64 30.545 18.495 31.445 19.845 32.39H21.195L21.51 32.3C21.87 32.165 22.455 31.535 23.22 30.365C23.445 30.05 23.805 29.195 24.345 27.89L27.36 20.375C27.855 19.07 28.125 18.44 28.17 18.44L30.285 13.265H30.42C30.42 13.31 30.465 17.81 30.51 26.765V27.035C30.51 27.71 30.24 28.295 29.745 28.7C29.475 28.88 28.845 29.195 27.81 29.6C27.27 29.825 27 30.14 27 30.635C27 31.175 27.36 31.535 28.035 31.715C29.43 31.76 30.87 31.805 32.31 31.85H36.945H41.535C42.75 31.805 44.055 31.76 45.36 31.715C46.35 31.67 46.845 31.265 46.845 30.5C46.845 30.185 46.26 29.735 45.045 29.24C43.92 28.745 43.335 28.16 43.335 27.44V6.515C43.335 6.47 43.425 6.2 43.56 5.75V5.615L44.235 4.94L44.91 4.625C45.27 4.445 45.495 4.355 45.585 4.355V4.265C46.35 3.95 46.71 3.725 46.71 3.59V2.6C46.71 2.15 45.855 1.925 44.145 1.925H31.995C31.365 1.925 30.825 2.465 30.42 3.5L24.885 16.64L24.66 17L24.57 17.09C24.48 17.045 24.165 16.415 23.67 15.2C22.995 13.625 22.185 11.6 21.285 9.215C21.06 8.585 20.295 6.74 19.035 3.725C18.54 2.51 18 1.925 17.46 1.925H4.41L2.385 2.015C1.845 2.06 1.575 2.375 1.575 3.005ZM28.17 28.115V28.34C29.115 28.025 29.61 27.755 29.61 27.44V24.65C28.665 26.315 28.17 27.44 28.17 28.115ZM51.4758 2.96C51.4758 1.565 52.1958 0.889999 53.6358 0.889999H78.1608C78.7008 0.889999 79.0608 1.025 79.2858 1.25L82.4358 4.4V12.59C82.4358 13.58 81.7158 14.075 80.3208 14.075C79.9158 14.075 79.6008 14.03 79.4208 13.94C78.9258 13.715 78.6558 13.625 78.6108 13.625V19.655C78.6558 19.7 78.7008 19.7 78.7458 19.7C79.2858 19.52 79.6458 19.43 79.8708 19.43C80.5458 19.43 80.9958 19.565 81.2208 19.79L84.3708 22.94V33.29C84.3708 34.325 83.7858 34.865 82.5708 34.865H55.5708C55.1208 34.865 54.7608 34.73 54.4458 34.415L51.7458 31.715C51.5658 31.58 51.4758 31.175 51.4758 30.545C51.4758 29.735 51.8808 29.15 52.7358 28.79C54.3108 28.115 55.1208 27.62 55.1208 27.35V7.19C55.1208 7.145 54.8958 6.965 54.4458 6.74L51.7458 4.04C51.5658 3.905 51.4758 3.545 51.4758 2.96ZM54.4458 1.925C53.0508 1.88 52.3758 2.285 52.3758 3.095C52.3758 3.365 52.5558 3.68 52.8708 4.04C53.2308 3.95 53.4108 4.085 53.4108 4.4C53.4108 4.31 53.4558 4.265 53.5458 4.265C53.5908 4.265 53.6358 4.31 53.7708 4.4H53.9958C54.9858 4.76 55.5708 5.3 55.7958 5.975C55.8408 20.15 55.8858 27.305 55.8858 27.395C55.8858 28.115 54.9408 28.88 53.0958 29.69C52.6008 29.915 52.3758 30.23 52.3758 30.68C52.3758 31.265 52.6908 31.58 53.3208 31.715C56.4708 31.85 59.3958 31.94 62.0508 31.94H64.7958C68.1708 31.895 73.3008 31.895 80.1858 31.85C80.8608 31.805 81.2208 31.535 81.2208 31.04V21.365C81.2208 20.78 80.7708 20.465 79.9158 20.465C79.0608 20.465 78.6108 20.78 78.5208 21.365C78.1158 23.39 77.7108 24.83 77.2608 25.64C76.0908 27.755 74.4258 28.79 72.3108 28.79C69.8358 28.79 68.6208 28.115 68.6208 26.765V17.99H70.5108C71.2758 17.99 71.9058 18.845 72.3108 20.6C72.3558 20.645 72.4008 20.735 72.4458 20.825C72.5808 22.85 73.0308 23.84 73.7958 23.84C74.6958 23.84 75.2358 23.39 75.4608 22.49V9.665C75.4608 8.9 75.1908 8.54 74.6958 8.54H73.4358C73.0308 8.54 72.8058 8.81 72.6708 9.35C72.5808 10.25 72.4458 11.15 72.3108 12.05C72.0408 13.85 71.5458 14.75 70.8708 14.75H68.8458L68.6208 14.525V6.74C68.6208 5.525 69.6558 4.94 71.7708 4.94C74.7858 4.94 76.2708 6.2 76.2708 8.675H76.3608C76.4058 8.675 76.4508 8.855 76.4958 9.215C76.6758 10.52 77.2608 11.15 78.2958 11.15V11.015H78.7008C78.7008 10.97 78.7008 10.97 78.7458 10.925C79.1058 10.43 79.2858 10.16 79.2858 10.115C79.3758 9.26 79.4208 7.82 79.4208 5.795V3.5C79.5558 2.645 79.1508 2.15 78.2958 1.925C68.4408 1.835 63.1308 1.79 62.4558 1.79C61.7808 1.79 59.1258 1.835 54.4458 1.925ZM71.6358 9.44V10.025C71.6358 9.8 71.7708 9.305 71.9958 8.54V8.45H71.8608C71.7258 8.45 71.6358 8.765 71.6358 9.44ZM72.3558 27.89C73.5708 27.89 74.4708 27.53 75.1458 26.765L72.0858 23.75C71.8158 23.48 71.6808 22.805 71.6358 21.725V27.8C71.6358 27.845 71.8608 27.89 72.3558 27.89ZM85.6631 3.05C85.6631 1.61 86.4281 0.889999 87.9131 0.889999H107.173C109.648 0.889999 112.033 1.25 114.373 1.925C122.248 4.22 126.208 9.845 126.208 18.89C126.208 29.555 120.853 34.865 110.098 34.865H89.8481C89.3981 34.865 89.0381 34.73 88.7231 34.415L86.0231 31.715C85.7981 31.49 85.6631 31.13 85.6631 30.59C85.6631 29.78 86.0231 29.195 86.7881 28.79C88.5431 27.935 89.3981 27.44 89.3981 27.35V7.19L88.4981 6.65L86.1131 4.265C85.7981 3.95 85.6631 3.545 85.6631 3.05ZM88.4981 1.925C87.2831 1.88 86.6531 2.285 86.6531 3.05C86.6531 3.455 87.3731 3.95 88.8131 4.625C89.7131 5.03 90.1631 5.93 90.1631 7.325V27.125C89.9831 27.98 89.6681 28.61 89.1731 29.015L87.4631 29.6C86.9231 29.735 86.6531 30.14 86.6531 30.725C86.6531 31.4 87.3281 31.805 88.7231 31.85C90.8381 31.895 93.5381 31.94 96.8231 31.94C100.648 31.94 104.518 31.895 108.523 31.85C118.288 31.175 123.148 26.09 123.148 16.595C123.148 7.1 118.378 2.24 108.838 1.925C102.853 1.835 98.6681 1.79 96.2381 1.79C94.1231 1.79 91.5581 1.835 88.4981 1.925ZM102.673 22.175V5.075H105.598C107.533 5.075 108.973 6.47 109.963 9.215C110.548 10.88 110.863 12.41 110.863 13.715V19.7C110.863 20.735 110.593 22.31 110.098 24.425C109.333 27.35 107.938 28.79 105.868 28.79C104.203 28.79 103.213 27.62 102.898 25.325C102.763 24.335 102.673 23.3 102.673 22.175ZM106.093 27.89C107.353 27.89 108.343 26.9 109.063 24.965C109.828 22.85 110.188 20.105 110.188 16.685C110.188 15.2 110.098 13.715 109.963 12.275C109.648 9.35 108.208 7.91 105.688 7.91V26.09C105.688 27.305 105.823 27.89 106.093 27.89ZM127.499 2.96C127.499 1.565 128.219 0.889999 129.659 0.889999H146.849C147.434 0.889999 147.974 1.115 148.424 1.565L150.809 3.95C151.124 4.265 151.259 4.67 151.259 5.21C151.259 5.975 150.404 6.74 148.649 7.55C147.884 7.865 147.524 8.27 147.524 8.675V28.565C147.524 28.61 147.659 28.745 147.974 28.925L150.809 31.625C151.124 31.895 151.259 32.3 151.259 32.795C151.259 34.19 150.539 34.865 149.099 34.865H131.774C131.279 34.865 130.874 34.73 130.559 34.415L127.859 31.715C127.634 31.49 127.499 31.085 127.499 30.545C127.499 29.69 127.949 29.06 128.849 28.7C130.334 28.07 131.099 27.665 131.099 27.44V7.19C131.099 7.145 130.829 6.965 130.334 6.65L127.724 3.95C127.589 3.77 127.499 3.455 127.499 2.96ZM129.524 1.925C129.119 2.015 128.804 2.24 128.534 2.6C128.489 2.735 128.489 2.915 128.489 3.095C128.489 3.41 129.254 3.995 130.784 4.85C131.549 5.255 131.909 5.66 131.909 6.065V27.575C131.909 27.89 130.919 28.565 128.984 29.69C128.669 29.87 128.489 30.14 128.489 30.545C128.489 31.4 128.804 31.85 129.434 31.85H147.119C147.119 31.805 147.209 31.715 147.434 31.625C147.794 31.4 147.974 31.085 147.974 30.68C147.974 30.545 147.164 29.915 145.499 28.79C144.914 28.385 144.599 27.98 144.599 27.665V6.2C144.599 5.705 145.004 5.21 145.859 4.715C147.254 3.815 147.974 3.275 147.974 3.05C147.974 2.42 147.614 2.06 146.849 1.925C144.914 1.835 142.034 1.79 138.254 1.79C134.429 1.79 131.549 1.835 129.524 1.925ZM150.57 16.955C150.57 9.62 153.99 4.58 160.83 1.835C163.485 0.799998 166.41 0.259999 169.605 0.259999C171.45 0.259999 173.16 0.349998 174.78 0.574998C177.39 0.979998 179.055 1.52 179.82 2.285L183.105 5.435C183.24 5.57 183.33 5.75 183.33 5.975V14.66C183.33 15.65 182.565 16.145 181.08 16.145C180.405 16.145 179.955 16.055 179.82 15.875L177.03 13.085C176.805 12.905 176.58 12.32 176.355 11.375C176.085 10.43 175.905 9.755 175.77 9.26C175.365 7.91 174.645 7.235 173.52 7.235C170.865 7.235 169.065 9.08 168.12 12.725C167.67 14.48 167.445 16.505 167.445 18.8V20.96C167.895 24.785 170.145 26.72 174.195 26.72C175.545 26.72 177.39 26.315 179.73 25.46H180.27C180.945 25.46 181.44 25.595 181.755 25.91L184.455 28.61C184.68 28.835 184.77 29.195 184.77 29.6C184.77 30.725 183.6 31.94 181.305 33.2C180.27 33.785 179.1 34.235 177.795 34.55C175.5 35.18 173.25 35.495 171.045 35.495C165.42 35.495 161.145 33.965 158.13 30.95L154.305 27.125C151.83 24.65 150.57 21.275 150.57 16.955ZM151.335 16.955C151.335 23.885 154.755 28.655 161.595 31.31C163.755 32.165 166.095 32.57 168.66 32.57C170.685 32.57 172.755 32.3 174.87 31.76C176.535 31.355 178.11 30.68 179.505 29.735C179.64 29.645 179.73 29.6 179.775 29.6C179.775 29.555 179.82 29.465 179.955 29.375C180.99 28.61 181.53 28.025 181.53 27.53C181.53 26.81 181.08 26.45 180.225 26.45C180 26.45 179.505 26.585 178.695 26.9C177.3 27.44 175.905 27.71 174.555 27.71C171.27 27.71 168.57 26.63 166.545 24.425C166.5 24.38 166.5 24.29 166.455 24.2C165.06 22.4 164.385 19.88 164.385 16.64C164.385 13.985 164.7 11.69 165.33 9.71C166.41 6.11 168.39 4.31 171.225 4.31C171.99 4.31 172.98 4.625 174.195 5.21C174.24 5.255 174.285 5.255 174.33 5.21L174.87 5.75C174.825 5.795 175.185 6.38 175.905 7.46C175.995 7.595 176.22 8.225 176.58 9.26C176.58 9.305 176.625 9.35 176.67 9.35L177.57 12.275C177.615 12.41 177.975 12.68 178.695 13.085C178.785 13.13 178.83 13.22 178.83 13.31C178.875 13.265 178.875 13.22 178.875 13.085H179.505V12.95C179.955 12.635 180.18 12.32 180.18 12.05V3.95C180.18 3.5 179.55 3.005 178.245 2.51C176.13 1.655 173.16 1.25 169.335 1.25C166.32 1.25 163.845 1.61 161.82 2.375C154.845 5.03 151.335 9.89 151.335 16.955ZM180.405 9.935C180.54 8.045 180.54 6.155 180.405 4.31C180.27 6.155 180.27 8.045 180.405 9.935Z" fill="white"/>
</svg>
